# xmcd
#
# Track frame offsets:
#	182
#	13205
#	30262
#	43165
#	60067
#	72882
#	85402
#	101572
#	113600
#	126847
#	138867
#	151275
#	161452
#	175607
#	192390
#	210640
#	225212
#
# Disc length: 3278 seconds
#
# Revision: 1
# Processed by: cddbd v1.5.2PL0 Copyright (c) Steve Scherf et al.
# Submitted via: audiograbber 1.83.01
#
DISCID=cd0ccc11
DTITLE=Roto Noto - Purr Fect Pitch
DYEAR=1993
DGENRE=country
TTITLE0=Waiting for a green light - Jack Diamond
TTITLE1=I´ll Comfort You -Mark Laforme
TTITLE2=Some River Runs Dry -Diane Raeside
TTITLE3=She Wants Her Heart Back -Michael Terry
TTITLE4=Cord A Phone -Ugly Bob´s Little Big Band
TTITLE5=Whiskey Saturday Night -George Too Lucki and The Clampetts
TTITLE6=The Letter -Randy Carville
TTITLE7=Wanderlust Woman -Curly Neill
TTITLE8=One More Chance -Terry Micallef
TTITLE9=Second String -John Anthony
TTITLE10=Rub For Your Money -Moore and Moore
TTITLE11=Raging River -Jimmy Faulks
TTITLE12=Don´t Turn Away From Me -David Beavers
TTITLE13=I Care -Hallie Ross
TTITLE14=Please Come Home -Deiter Boehme
TTITLE15=Running In Circles -Michael terry 
TTITLE16=Give, Me Just A Little More Time -Harrison Kennedy
EXTD=
EXTT0=
EXTT1=
EXTT2=
EXTT3=
EXTT4=
EXTT5=
EXTT6=
EXTT7=
EXTT8=
EXTT9=
EXTT10=
EXTT11=
EXTT12=
EXTT13=
EXTT14=
EXTT15=
EXTT16=
PLAYORDER=
